<svg width="80" height="80" viewBox="0 0 80 80" fill="none" xmlns="http://www.w3.org/2000/svg">
<g clip-path="url(#clip0_49_0)">
<path d="M35 80C37.7614 80 40 77.7614 40 75C40 72.2386 37.7614 70 35 70C32.2386 70 30 72.2386 30 75C30 77.7614 32.2386 80 35 80Z" fill="#1D272E"/>
<path d="M61.667 80C64.4284 80 66.667 77.7614 66.667 75C66.667 72.2386 64.4284 70 61.667 70C58.9056 70 56.667 72.2386 56.667 75C56.667 77.7614 58.9056 80 61.667 80Z" fill="#1D272E"/>
<path d="M80.0003 21.6667C80.0003 33.6133 70.2803 43.3333 58.3337 43.3333C46.387 43.3333 36.667 33.6133 36.667 21.6667C36.667 9.72 46.387 0 58.3337 0C70.2803 0 80.0003 9.72 80.0003 21.6667ZM70.0003 21.6667C70.0003 19.8267 68.507 18.3333 66.667 18.3333H61.667V13.3333C61.667 11.4933 60.1737 10 58.3337 10C56.4937 10 55.0003 11.4933 55.0003 13.3333V18.3333H50.0003C48.1603 18.3333 46.667 19.8267 46.667 21.6667C46.667 23.5067 48.1603 25 50.0003 25H55.0003V30C55.0003 31.84 56.4937 33.3333 58.3337 33.3333C60.1737 33.3333 61.667 31.84 61.667 30V25H66.667C68.507 25 70.0003 23.5067 70.0003 21.6667Z" fill="#1D272E"/>
<path d="M29.9998 21.6665C29.9998 21.1032 30.0498 20.5532 30.0831 19.9998H21.1965L19.9298 13.9798C19.0431 9.77984 15.2898 6.71984 10.9998 6.70317L2.50979 6.6665C2.50645 6.6665 2.50312 6.6665 2.49979 6.6665C1.12312 6.6665 0.00645222 7.7765 -0.000214445 9.1565C-0.00688111 10.5365 1.10979 11.6598 2.48979 11.6665L10.9765 11.7032C12.9265 11.7098 14.6331 13.1032 15.0365 15.0098L16.7198 23.0132L22.7531 51.6665H20.8331C16.6965 51.6665 13.3331 55.0298 13.3331 59.1665C13.3331 63.3032 16.6965 66.6665 20.8331 66.6665H70.8331C72.2131 66.6665 73.3331 65.5465 73.3331 64.1665C73.3331 62.7865 72.2131 61.6665 70.8331 61.6665H20.8331C19.4531 61.6665 18.3331 60.5465 18.3331 59.1665C18.3331 57.7865 19.4531 56.6665 20.8331 56.6665H25.8298H25.8331H70.8331C72.0131 56.6665 73.0365 55.8365 73.2798 54.6798L75.4965 44.1565C70.7265 47.8065 64.7865 49.9998 58.3331 49.9998C42.7098 49.9998 29.9998 37.2898 29.9998 21.6665Z" fill="#1D272E"/>
</g>
<defs>
<clipPath id="clip0_49_0">
<rect width="80" height="80" fill="white"/>
</clipPath>
</defs>
</svg>
