<svg width="40" height="40" viewBox="0 0 40 40" fill="none" xmlns="http://www.w3.org/2000/svg">
<path d="M20.0281 25.6722C23.2971 25.6722 25.9473 23.1041 25.9473 19.9363C25.9473 16.7685 23.2971 14.2004 20.0281 14.2004C16.759 14.2004 14.1089 16.7685 14.1089 19.9363C14.1089 23.1041 16.759 25.6722 20.0281 25.6722Z" fill="#FFB33A"/>
<path d="M29.1903 20.2562C29.1903 25.1589 25.0884 29.1327 20.0285 29.1327C14.9687 29.1327 10.8668 25.1589 10.8668 20.2562C10.8668 19.3776 10.9994 18.5289 11.2449 17.7273H8.5376V30.1782C8.5376 30.8232 9.06466 31.3498 9.70916 31.3498H30.2346C30.8795 31.3498 31.407 30.8232 31.407 30.1782V17.7273H28.8122C29.0573 18.5289 29.1903 19.3776 29.1903 20.2562Z" fill="#FFB33A"/>
<path d="M26.7343 14.3673H30.0656C30.7957 14.3673 31.3923 13.7707 31.3923 13.0407V9.86441C31.3923 9.13398 30.7957 8.53735 30.0656 8.53735H26.7343C26.0039 8.53735 25.4072 9.13398 25.4072 9.86441V13.0407C25.4068 13.7703 26.0039 14.3673 26.7343 14.3673Z" fill="#FFB33A"/>
<path d="M20 0C8.95427 0 0 8.95427 0 20C0 31.0457 8.95427 40 20 40C31.0457 40 40 31.0457 40 20C40 8.95427 31.0457 0 20 0ZM30.9545 34.738H9.04593C6.9643 34.738 5.2624 33.1973 5.2624 30.9553V9.04552C5.2624 6.80266 6.9643 5.2624 9.04593 5.2624H30.9545C33.0357 5.2624 34.738 6.80266 34.738 9.04552V30.9553C34.738 33.1973 33.0353 34.738 30.9545 34.738Z" fill="#FFB33A"/>
</svg>
