<svg width="80" height="80" viewBox="0 0 80 80" fill="none" xmlns="http://www.w3.org/2000/svg">
<g clip-path="url(#clip0_49_28)">
<path d="M65 60.0002C56.73 60.0002 50 53.2702 50 45.0002C50 36.7302 56.73 30.0002 65 30.0002H73.3333V23.3335C73.3333 19.6568 70.3433 16.6668 66.6667 16.6668H63.3333V10.0002C63.3333 6.3235 60.3433 3.3335 56.6667 3.3335H10C5.05667 3.3335 0.97 6.94683 0.17 11.6635C0.0966667 11.9368 0 12.2035 0 12.5002V63.3335C0 68.8468 4.48667 73.3335 10 73.3335H66.6667C70.3433 73.3335 73.3333 70.3435 73.3333 66.6668V60.0002H65ZM6.66667 13.3335C6.66667 11.4968 8.16 10.0002 10 10.0002H56.6667V16.6668H10C8.16 16.6668 6.66667 15.1702 6.66667 13.3335Z" fill="#1D272E"/>
<path d="M77.5 35H65C59.4867 35 55 39.4867 55 45C55 50.5133 59.4867 55 65 55H77.5C78.88 55 80 53.88 80 52.5V37.5C80 36.12 78.88 35 77.5 35ZM65 48.3333C63.16 48.3333 61.6667 46.84 61.6667 45C61.6667 43.16 63.16 41.6667 65 41.6667C66.84 41.6667 68.3333 43.16 68.3333 45C68.3333 46.84 66.84 48.3333 65 48.3333Z" fill="#1D272E"/>
</g>
<defs>
<clipPath id="clip0_49_28">
<rect width="80" height="80" fill="white"/>
</clipPath>
</defs>
</svg>
