<svg width="85" height="59" viewBox="0 0 85 59" fill="none" xmlns="http://www.w3.org/2000/svg">
<path d="M69.492 42.8966C67.415 42.8966 65.4419 43.71 63.9534 45.1812C62.4649 46.6697 61.6341 48.6082 61.6341 50.6852C61.6341 52.7622 62.4476 54.7007 63.9534 56.1892C65.4592 57.6604 67.415 58.4738 69.492 58.4738C73.7497 58.4738 77.2114 54.9776 77.2114 50.6852C77.2114 46.3928 73.7497 42.8966 69.492 42.8966ZM69.492 55.0122C67.1034 55.0122 65.0957 53.0391 65.0957 50.6852C65.0957 48.3313 67.1034 46.3582 69.492 46.3582C71.8459 46.3582 73.7497 48.2967 73.7497 50.6852C73.7497 53.0737 71.8459 55.0122 69.492 55.0122ZM71.4997 16.9517C71.1881 16.6575 70.7728 16.5017 70.34 16.5017H61.461C60.5091 16.5017 59.7302 17.2806 59.7302 18.2325V32.4252C59.7302 33.3771 60.5091 34.156 61.461 34.156H75.5498C76.5017 34.156 77.2806 33.3771 77.2806 32.4252V22.923C77.2806 22.4384 77.0729 21.9711 76.7094 21.6422L71.4997 16.9517ZM73.819 30.6944H63.1918V19.946H69.665L73.819 23.6846V30.6944ZM27.2256 42.8966C25.1486 42.8966 23.1755 43.71 21.687 45.1812C20.1985 46.6697 19.3677 48.6082 19.3677 50.6852C19.3677 52.7622 20.1812 54.7007 21.687 56.1892C23.1928 57.6604 25.1486 58.4738 27.2256 58.4738C31.4834 58.4738 34.945 54.9776 34.945 50.6852C34.945 46.3928 31.4834 42.8966 27.2256 42.8966ZM27.2256 55.0122C24.8371 55.0122 22.8294 53.0391 22.8294 50.6852C22.8294 48.3313 24.8371 46.3582 27.2256 46.3582C29.5795 46.3582 31.4834 48.2967 31.4834 50.6852C31.4834 53.0737 29.5795 55.0122 27.2256 55.0122ZM15.6811 45.0255H12.2022V40.4215C12.2022 39.4696 11.4233 38.6907 10.4714 38.6907C9.51945 38.6907 8.74058 39.4696 8.74058 40.4215V46.7563C8.74058 47.7082 9.51945 48.4871 10.4714 48.4871H15.6811C16.6331 48.4871 17.4119 47.7082 17.4119 46.7563C17.4119 45.8043 16.6331 45.0255 15.6811 45.0255ZM24.4563 35.5925C24.4563 34.6406 23.6775 33.8617 22.7255 33.8617H1.73081C0.778864 33.8617 0 34.6406 0 35.5925C0 36.5445 0.778864 37.3234 1.73081 37.3234H22.7255C23.6775 37.3234 24.4563 36.5618 24.4563 35.5925ZM5.24435 29.3443L26.2391 29.4655C27.191 29.4655 27.9699 28.7039 27.9872 27.752C28.0045 26.7827 27.2256 26.0039 26.2737 26.0039L5.27897 25.8827C5.26166 25.8827 5.26166 25.8827 5.26166 25.8827C4.30971 25.8827 3.53085 26.6443 3.53085 27.5962C3.51354 28.5655 4.2924 29.3443 5.24435 29.3443ZM8.7752 21.4865H29.7699C30.7218 21.4865 31.5007 20.7076 31.5007 19.7556C31.5007 18.8037 30.7218 18.0248 29.7699 18.0248H8.7752C7.82325 18.0248 7.04439 18.8037 7.04439 19.7556C7.04439 20.7076 7.82325 21.4865 8.7752 21.4865ZM84.3596 19.1499L71.967 8.88617C71.6555 8.62655 71.2747 8.48809 70.8593 8.48809H56.2859V2.25718C56.2859 1.30523 55.507 0.526367 54.5551 0.526367H10.4714C9.51945 0.526367 8.74058 1.30523 8.74058 2.25718V14.9267C8.74058 15.8786 9.51945 16.6575 10.4714 16.6575C11.4233 16.6575 12.2022 15.8786 12.2022 14.9267V3.98798H52.8416V45.0255H38.6489C37.697 45.0255 36.9181 45.8043 36.9181 46.7563C36.9181 47.7082 37.697 48.4871 38.6489 48.4871H59.7821C60.7341 48.4871 61.5129 47.7082 61.5129 46.7563C61.5129 45.8043 60.7341 45.0255 59.7821 45.0255H56.3032V11.9497H70.2535L81.5384 21.2961L81.4172 44.9908H79.6172C78.6652 44.9908 77.8864 45.7697 77.8864 46.7216C77.8864 47.6736 78.6652 48.4524 79.6172 48.4524H83.1307C84.0827 48.4524 84.8615 47.6909 84.8615 46.739L85 20.4999C84.9827 19.9806 84.7577 19.4787 84.3596 19.1499Z" fill="#1D272E"/>
</svg>
