<svg width="56" height="80" viewBox="0 0 56 80" fill="none" xmlns="http://www.w3.org/2000/svg">
<path d="M55.6642 65.47L55.2648 63.4656C54.4879 59.5738 51.6553 57.9792 50.0357 57.375C49.4292 57.1498 48.4004 56.9188 36.4785 53.9642V53.1505H49.1645C50.4748 53.1505 51.5409 52.0845 51.5409 50.7741V35.5151C52.3268 34.4225 52.7732 33.09 52.7732 31.6762C52.7732 30.2625 52.3267 28.93 51.5407 27.8371V22.4781C51.5407 16.4604 49.1845 10.8037 44.9059 6.54975C36.8662 -1.44417 24.2797 -2.18948 15.4141 4.69397C14.903 5.09084 14.8103 5.82694 15.2072 6.33803C15.6043 6.84944 16.3402 6.9421 16.8513 6.54491C24.7649 0.400836 36.0459 1.04521 43.2534 8.21148C47.0862 12.0224 49.197 17.089 49.197 22.4779V25.4021C48.8623 24.5278 48.1671 23.8332 47.2928 23.4988V22.4779C47.2928 12.4298 39.1179 4.25491 29.0696 4.25491C19.0213 4.25491 10.8464 12.4298 10.8464 22.4779V23.4988C9.9719 23.8332 9.27674 24.5282 8.94205 25.4024V22.7121C8.94205 18.1445 10.4146 13.8207 13.2005 10.2082C13.5957 9.6957 13.5007 8.96007 12.9882 8.5646C12.4758 8.16976 11.74 8.26429 11.3446 8.77695C8.23971 12.8034 6.59845 17.622 6.59845 22.712V27.8367C5.81251 28.9293 5.36595 30.262 5.36595 31.6757C5.36595 33.0896 5.81251 34.4222 6.59845 35.515V50.2787C6.59845 51.862 7.88642 53.1503 9.46986 53.1503H21.5643V53.9539C20.5783 54.1977 9.34721 56.9813 8.08486 57.3488L8.08627 57.3534C8.06017 57.363 8.03486 57.3731 8.01033 57.3834L8.00705 57.3745C6.38767 57.9788 3.5547 59.5733 2.77782 63.4656C1.84001 68.1749 1.18297 71.4544 0.506096 74.8347C-0.0290609 77.5093 2.01782 79.9997 4.74017 79.9997H18.243C18.8904 79.9997 19.4147 79.4752 19.4147 78.828C19.4147 78.1807 18.8902 77.6563 18.243 77.6563H14.1319V72.3347C14.1319 71.6874 13.6074 71.163 12.9602 71.163C12.3128 71.163 11.7885 71.6875 11.7885 72.3347V77.6563H4.74048C3.4936 77.6563 2.56016 76.5155 2.80454 75.2947C3.63923 71.125 4.23939 68.1278 5.07642 63.9239C5.84939 60.0524 9.43361 59.4275 9.63658 59.3344L16.8335 57.5508L20.083 61.3864C20.0832 61.3866 20.0832 61.3867 20.0833 61.3867L24.3157 66.3825C25.5336 67.821 27.1813 68.7249 29.0126 68.7271C29.0149 68.7271 29.0169 68.7271 29.0193 68.7271C30.7657 68.7271 32.4313 67.9 33.7104 66.3978L41.2366 57.558L48.4315 59.341L48.432 59.3397C48.5212 59.3706 48.5476 59.3756 49.2537 59.5847C50.4218 60.0286 52.4182 61.176 52.9668 63.9239L53.366 65.9277C53.4926 66.5625 54.11 66.9746 54.744 66.8482C55.3785 66.7217 55.7906 66.1047 55.6642 65.47ZM20.9374 46.8486H24.455C24.929 48.0881 26.1274 48.9725 27.5316 48.9725H30.5083C32.3257 48.9725 33.8041 47.494 33.8041 45.6769C33.8041 43.8595 32.3257 42.3811 30.5083 42.3811H27.5316C26.1274 42.3811 24.9288 43.2654 24.455 44.5051H20.6289C19.7994 44.5051 18.995 44.3948 18.2393 44.1872C16.3619 41.7478 15.3141 38.7206 15.3141 35.6159V32.8221C15.3141 32.5911 15.4069 32.3765 15.5752 32.2181C15.7293 32.0729 15.9263 31.9946 16.1347 31.9946C16.1514 31.9946 16.1683 31.9951 16.1852 31.9962C16.7361 32.0295 17.2746 32.0454 17.8043 32.0454C28.471 32.0445 34.8221 25.5368 37.3538 22.2367C38.6807 24.6103 40.6446 25.3454 42.0974 25.5365C42.4821 25.587 42.7721 25.9154 42.7721 26.3006V35.8278C42.7721 47.0972 29.8441 53.5245 20.9374 46.8486ZM26.5797 45.6769C26.5797 45.1519 27.0069 44.7247 27.5319 44.7247H30.5087C31.0337 44.7247 31.461 45.1519 31.461 45.6769C31.461 46.2019 31.0338 46.6291 30.5087 46.6291H27.5319C27.0068 46.6289 26.5797 46.2019 26.5797 45.6769ZM49.4167 28.9276C49.4404 28.9607 49.4659 28.9923 49.4928 29.0228C50.0859 29.7581 50.4295 30.6848 50.4295 31.6761C50.4295 32.6679 50.0856 33.5951 49.492 34.3304C49.4653 34.3606 49.4401 34.3918 49.4167 34.4247V28.9276ZM49.1971 37.9498V50.7742C49.1971 50.7923 49.1824 50.807 49.1643 50.807H36.4784V50.0902C40.5156 47.988 43.5279 44.2262 44.6435 39.7187C45.0885 39.9431 45.5895 40.0725 46.1207 40.0725C47.5246 40.0725 48.7229 39.1887 49.1971 37.9498ZM45.1685 26.5756C45.1685 26.0506 45.5957 25.6232 46.1209 25.6232C46.6459 25.6232 47.0731 26.0504 47.0731 26.5756V26.6764V36.6761V36.777C47.0731 37.302 46.6459 37.7292 46.1209 37.7292C45.5959 37.7292 45.1685 37.3022 45.1685 36.777V26.5756ZM29.0696 6.5985C37.8257 6.5985 44.9492 13.722 44.9492 22.4779V23.4988C44.634 23.6193 44.3418 23.7856 44.0813 23.9917C43.6254 23.5803 43.0482 23.2979 42.4027 23.2131C40.9962 23.0279 39.9304 22.2088 39.2355 20.7785C38.5649 19.3977 36.6662 19.2231 35.7576 20.4599C33.6637 23.3098 27.8421 29.7015 17.79 29.7012C17.3118 29.7012 16.8236 29.6868 16.3263 29.6568C15.9835 29.636 15.6419 29.6748 15.3144 29.7635V26.5754C15.3144 25.1712 14.43 23.9724 13.1903 23.4987V22.4779H13.1902C13.19 13.722 20.3136 6.5985 29.0696 6.5985ZM13.8244 40.8129C13.6474 40.4747 13.506 40.1239 13.4022 39.764C13.4342 39.7492 13.4661 39.7339 13.4975 39.7181C13.5935 40.0868 13.7032 40.4518 13.8244 40.8129ZM11.0661 36.6761V26.6764V26.5756C11.0661 26.0506 11.4933 25.6232 12.0185 25.6232C12.5435 25.6232 12.9707 26.0504 12.9707 26.5756V32.8221V35.6159V36.777C12.9707 37.302 12.5436 37.7292 12.0185 37.7292C11.4935 37.7292 11.0661 37.3022 11.0661 36.777V36.6761ZM8.72252 34.4247C8.69877 34.3915 8.6733 34.3598 8.64643 34.3295C8.0533 33.5943 7.70955 32.6673 7.70955 31.6761C7.70955 30.6848 8.0533 29.7579 8.64643 29.0228C8.67346 28.9923 8.69893 28.9607 8.72252 28.9276V34.4247ZM9.46986 50.807C9.17893 50.807 8.94205 50.5702 8.94205 50.2791V37.9498C9.29924 38.8831 10.0661 39.6147 11.0242 39.9186C11.3386 41.3604 12.0622 42.7039 13.141 43.8351C14.145 44.8884 15.4238 45.693 16.8582 46.2053C17.228 46.6425 17.6214 47.0617 18.0382 47.4595C19.1132 48.4855 20.2985 49.3431 21.5641 50.0234V50.807H9.46986ZM34.5452 61.8017L31.9257 64.8783C31.0993 65.8491 30.0673 66.3833 29.019 66.3833C29.0177 66.3833 29.0165 66.3833 29.0154 66.3833C27.9644 66.3821 26.9304 65.8439 26.1036 64.8681L23.5057 61.8017H34.5452ZM36.5404 59.4581H21.52L19.3718 56.922L23.0183 56.0183C23.5413 55.8886 23.9083 55.4075 23.9083 54.8691C23.9083 54.86 23.9082 54.8513 23.908 54.8422L23.9082 51.0478C25.5447 51.6092 27.2741 51.9005 29.0451 51.9005C30.7305 51.9005 32.4635 51.6358 34.1348 51.0809V54.8541C34.1346 54.8631 34.1344 54.8719 34.1344 54.8809C34.1344 55.4195 34.5016 55.8889 35.0244 56.0183L38.6946 56.928L36.5404 59.4581Z" fill="#1D272E"/>
</svg>
